<svg xmlns="http://www.w3.org/2000/svg" width="75" height="95" fill="none"><rect width="74.5" height="94.5" x=".3" y=".3" fill="#fff" rx="7.8"/><rect width="74.5" height="94.5" x=".3" y=".3" stroke="#003500" stroke-width=".5" rx="7.8"/><path stroke="#006C00" stroke-width=".7" d="M12.2 19.4a1.6 1.6 0 0 0 0 3.1h2l-1 1.9a1.6 1.6 0 0 0 2.7 1.5l1-1.8 1.1 1.8a1.6 1.6 0 0 0 2.7-1.5l-1-1.9h2a1.6 1.6 0 0 0 0-3h-2l1-2A1.6 1.6 0 0 0 18 16L17 18 16 16a1.6 1.6 0 0 0-2.8 1.6l1 1.8zm4.7-7.4a9 9 0 1 0 .1 0Zm0 1.7a7.3 7.3 0 1 0 .1 0Zm0 5.4a1.8 1.8 0 1 0 .1 0Zm0 1.6a.3.3 0 1 0 .1 0Z"/><path stroke="#BA0000" stroke-width=".7" d="M12.2 45a1.6 1.6 0 1 0 0 3.2h2l-1 1.8a1.6 1.6 0 0 0 2.7 1.6l1-1.8 1.1 1.8a1.6 1.6 0 0 0 2.7-1.6l-1-1.8h2a1.6 1.6 0 0 0 0-3.1h-2l1-1.8a1.6 1.6 0 0 0-2.7-1.6l-1 1.8-1-1.8a1.6 1.6 0 0 0-2.8 1.6l1 1.8zm4.7-7.3a9 9 0 1 0 .1 0Zm0 1.6a7.3 7.3 0 1 0 .1 0Zm0 5.5a1.8 1.8 0 1 0 .1 0Zm0 1.5a.3.3 0 1 0 .1 0Z"/><path stroke="#006C00" stroke-width=".7" d="M12.2 70.8a1.6 1.6 0 1 0 0 3h2l-1 2a1.6 1.6 0 0 0 2.7 1.5l1-1.9 1.1 1.9a1.6 1.6 0 0 0 2.7-1.6l-1-1.8h2a1.6 1.6 0 0 0 0-3.1h-2l1-1.9a1.6 1.6 0 0 0-2.7-1.5l-1 1.8-1-1.8a1.6 1.6 0 0 0-2.8 1.5l1 1.9zm4.7-7.5a9 9 0 1 0 .1 0Zm0 1.7a7.3 7.3 0 1 0 .1 0Zm0 5.5a1.8 1.8 0 1 0 .1 0Zm0 1.5a.3.3 0 1 0 .1 0ZM33.3 19.4a1.6 1.6 0 0 0 0 3.1h2l-1 1.9a1.6 1.6 0 0 0 2.7 1.5l1-1.8 1.1 1.8a1.6 1.6 0 0 0 2.7-1.5l-1-1.9h2a1.6 1.6 0 0 0 0-3h-2l1-2a1.6 1.6 0 0 0-2.7-1.5l-1 1.9-1-1.9a1.6 1.6 0 0 0-2.8 1.6l1 1.8zM38 12a9 9 0 1 0 .1 0Zm0 1.7a7.3 7.3 0 1 0 .1 0Zm0 5.4a1.8 1.8 0 1 0 .1 0Zm0 1.6a.3.3 0 1 0 .1 0Z"/><path stroke="#BA0000" stroke-width=".7" d="M33.3 45a1.6 1.6 0 1 0 0 3.2h2l-1 1.8a1.6 1.6 0 0 0 2.7 1.6l1-1.8 1.1 1.8a1.6 1.6 0 0 0 2.7-1.6l-1-1.8h2a1.6 1.6 0 0 0 0-3.1h-2l1-1.8a1.6 1.6 0 0 0-2.7-1.6l-1 1.8-1-1.8a1.6 1.6 0 0 0-2.8 1.6l1 1.8zm4.7-7.3a9 9 0 1 0 .1 0Zm0 1.6a7.3 7.3 0 1 0 .1 0Zm0 5.5a1.8 1.8 0 1 0 .1 0Zm0 1.5a.3.3 0 1 0 .1 0Z"/><path stroke="#006C00" stroke-width=".7" d="M33.3 70.8a1.6 1.6 0 1 0 0 3h2l-1 2a1.6 1.6 0 0 0 2.7 1.5l1-1.9 1.1 1.9a1.6 1.6 0 0 0 2.7-1.6l-1-1.8h2a1.6 1.6 0 0 0 0-3.1h-2l1-1.9a1.6 1.6 0 0 0-2.7-1.5l-1 1.8-1-1.8a1.6 1.6 0 0 0-2.8 1.5l1 1.9zm4.7-7.5a9 9 0 1 0 .1 0Zm0 1.7a7.3 7.3 0 1 0 .1 0Zm0 5.5a1.8 1.8 0 1 0 .1 0Zm0 1.5a.3.3 0 1 0 .1 0ZM54.3 19.4a1.6 1.6 0 0 0 0 3.1h2.2l-1.1 1.9a1.6 1.6 0 0 0 2.7 1.5l1-1.8 1.1 1.8a1.6 1.6 0 0 0 2.7-1.5l-1-1.9h2a1.6 1.6 0 0 0 0-3h-2l1-2a1.6 1.6 0 0 0-2.7-1.5l-1 1.9L58 16a1.6 1.6 0 0 0-2.7 1.6l1 1.8zm4.8-7.4a9 9 0 1 0 .1 0zm0 1.7a7.3 7.3 0 1 0 .1 0zm0 5.4a1.8 1.8 0 1 0 .1 0zm0 1.6a.3.3 0 1 0 .1 0z"/><path stroke="#BA0000" stroke-width=".7" d="M54.3 45a1.6 1.6 0 0 0 0 3.2h2.2L55.4 50a1.6 1.6 0 0 0 2.7 1.6l1-1.8 1.1 1.8a1.6 1.6 0 0 0 2.7-1.6l-1-1.8h2a1.6 1.6 0 0 0 0-3.1h-2l1-1.8a1.6 1.6 0 0 0-2.7-1.6l-1 1.8-1.1-1.8a1.6 1.6 0 0 0-2.7 1.6l1 1.8zm4.8-7.3a9 9 0 1 0 .1 0zm0 1.6a7.3 7.3 0 1 0 .1 0zm0 5.5a1.8 1.8 0 1 0 .1 0zm0 1.5a.3.3 0 1 0 .1 0z"/><path stroke="#006C00" stroke-width=".7" d="M54.3 70.8a1.6 1.6 0 0 0 0 3h2.2l-1.1 2a1.6 1.6 0 0 0 2.7 1.5l1-1.9 1.1 1.9a1.6 1.6 0 0 0 2.7-1.6l-1-1.8h2a1.6 1.6 0 0 0 0-3.1h-2l1-1.9a1.6 1.6 0 0 0-2.7-1.5l-1 1.8-1.1-1.8a1.6 1.6 0 0 0-2.7 1.5l1 1.9zm4.8-7.5a9 9 0 1 0 .1 0zm0 1.7a7.3 7.3 0 1 0 .1 0zm0 5.5a1.8 1.8 0 1 0 .1 0zm0 1.5a.3.3 0 1 0 .1 0z"/></svg>